<svg width="550" height="264" viewBox="0 0 550 264" fill="none" xmlns="http://www.w3.org/2000/svg">
<g opacity="0.3" clip-path="url(#clip0_3243_6170)">
<path fill-rule="evenodd" clip-rule="evenodd" d="M243.197 196.142C247.338 199.022 254.568 195.798 259.345 188.94C264.123 182.082 264.638 174.187 260.497 171.306C256.355 168.426 249.126 171.651 244.349 178.508C239.571 185.367 239.056 193.261 243.197 196.142Z" fill="#C9C9FF"/>
<path fill-rule="evenodd" clip-rule="evenodd" d="M294.146 200.232C294.382 196.76 293.304 194.189 291.383 192.844L260.5 171.31C262.441 172.668 263.535 175.237 263.265 178.698C262.777 185.585 257.276 193.435 250.983 196.221C247.844 197.605 245.108 197.482 243.206 196.15L274.079 217.677C276.02 219.036 278.725 219.138 281.859 217.764C288.136 215.021 293.663 207.136 294.147 200.231L294.146 200.232Z" fill="#8D8DFF"/>
<path fill-rule="evenodd" clip-rule="evenodd" d="M255.238 193.494C253.959 194.604 252.526 195.522 250.983 196.221C247.844 197.605 245.109 197.482 243.206 196.15L274.079 217.677C276.02 219.036 278.725 219.138 281.859 217.764C283.411 217.06 284.846 216.139 286.12 215.027L255.238 193.494Z" fill="#5971EA"/>
<path d="M352.397 127.069C359.337 138.606 374.257 142.381 385.721 135.5C397.186 128.618 400.854 113.686 393.914 102.149C386.974 90.6108 372.055 86.8361 360.59 93.7176C349.126 100.599 345.457 115.531 352.397 127.069Z" fill="#FFD036"/>
<path fill-rule="evenodd" clip-rule="evenodd" d="M397.413 115.315C395.604 125.653 384.399 131.951 371.951 129.067C359.502 126.184 350.135 114.548 352.571 103.549C352.903 102.11 353.423 100.721 354.118 99.418C347.491 107.682 347.011 119.338 352.931 128.205C358.851 137.071 369.801 141.098 379.978 138.151C390.154 135.204 397.202 125.965 397.386 115.331L397.412 115.316L397.413 115.315Z" fill="#FFC20C"/>
<path fill-rule="evenodd" clip-rule="evenodd" d="M378.745 105.483C374.918 104.77 372.242 101.81 372.769 98.8711C373.295 95.9304 376.824 94.1258 380.65 94.8381C384.477 95.5513 387.152 98.5112 386.626 101.451C386.1 104.391 382.571 106.195 378.744 105.484L378.745 105.483Z" fill="#F9E4AA"/>
<path fill-rule="evenodd" clip-rule="evenodd" d="M326.906 50.21L347.52 -27.4242L314.309 -39.7112L285.761 -18.7173L326.906 50.21Z" fill="#E56955"/>
<path fill-rule="evenodd" clip-rule="evenodd" d="M347.519 -27.4235L314.309 -39.7111L326.906 50.21L347.519 -27.4235Z" fill="#FEA084"/>
<path fill-rule="evenodd" clip-rule="evenodd" d="M44.16 109.85L29.7319 124.343L35.4926 131.281L44.4613 130.288L44.16 109.85Z" fill="#1C9FE6"/>
<path fill-rule="evenodd" clip-rule="evenodd" d="M29.7319 124.343L35.4926 131.281L44.161 109.85L29.7319 124.343Z" fill="#4FC9FF"/>
<path d="M274.389 96.1046C277.817 101.804 285.186 103.668 290.849 100.269C296.512 96.8699 298.324 89.4941 294.896 83.7949C291.468 78.0957 284.099 76.2312 278.436 79.6304C272.773 83.0296 270.961 90.4054 274.389 96.1046Z" fill="white"/>
<path fill-rule="evenodd" clip-rule="evenodd" d="M296.622 90.2971C295.729 95.4043 290.195 98.5141 284.047 97.0901C277.897 95.6667 273.269 89.9188 274.473 84.4856C274.638 83.7748 274.895 83.0887 275.238 82.4451C271.964 86.5281 271.728 92.284 274.652 96.6636C277.576 101.043 282.984 103.031 288.01 101.576C290.462 100.864 292.62 99.3844 294.168 97.3556C295.715 95.3269 296.571 92.8557 296.61 90.3049L296.622 90.2971Z" fill="#EEF8FF"/>
<path fill-rule="evenodd" clip-rule="evenodd" d="M287.403 85.4396C285.513 85.0878 284.192 83.6253 284.45 82.1749C284.711 80.723 286.454 79.8302 288.343 80.182C290.233 80.5338 291.554 81.9962 291.295 83.4487C291.035 84.9006 289.293 85.7927 287.403 85.4396Z" fill="white"/>
<path d="M411.631 202.454C416.04 202.146 419.365 198.351 419.059 193.978C418.753 189.605 414.931 186.31 410.523 186.618C406.115 186.926 402.789 190.72 403.095 195.093C403.401 199.466 407.223 202.762 411.631 202.454Z" fill="#80BAF5"/>
<path fill-rule="evenodd" clip-rule="evenodd" d="M414.896 187.557C417.651 189.626 417.825 193.836 415.129 197.042C412.431 200.247 407.632 201.25 404.777 198.9C404.406 198.588 404.077 198.23 403.799 197.833C405.23 200.999 408.567 202.875 412.044 202.467C415.519 202.06 418.327 199.462 418.979 196.051C419.296 194.386 419.071 192.664 418.336 191.138C417.601 189.611 416.396 188.359 414.897 187.567L414.896 187.557Z" fill="#61A8F1"/>
<path fill-rule="evenodd" clip-rule="evenodd" d="M409.24 191.545C408.462 192.556 407.198 192.897 406.416 192.305C405.634 191.714 405.631 190.415 406.409 189.403C407.187 188.391 408.452 188.052 409.234 188.642C410.016 189.234 410.018 190.534 409.24 191.545Z" fill="#A6D2FE"/>
<path d="M124.621 258.016C125.125 254.835 122.971 251.85 119.809 251.35C116.647 250.849 113.675 253.023 113.171 256.204C112.667 259.386 114.821 262.371 117.983 262.871C121.144 263.371 124.116 261.198 124.621 258.016Z" fill="#FAA166"/>
<path fill-rule="evenodd" clip-rule="evenodd" d="M114.557 253.252C116.48 251.636 119.504 252.203 121.343 254.644C123.181 257.086 123.106 260.659 120.966 262.3C120.684 262.513 120.375 262.688 120.046 262.821C121.262 262.574 122.368 261.948 123.204 261.032C124.04 260.116 124.563 258.958 124.696 257.725C124.835 256.494 124.578 255.251 123.961 254.175C123.345 253.1 122.402 252.249 121.269 251.746C120.137 251.248 118.875 251.126 117.669 251.397C116.462 251.669 115.374 252.319 114.565 253.254L114.556 253.252L114.557 253.252Z" fill="#F0833B"/>
<path fill-rule="evenodd" clip-rule="evenodd" d="M116.465 257.925C117.058 258.643 117.092 259.597 116.543 260.055C115.994 260.513 115.069 260.302 114.478 259.582C113.885 258.864 113.851 257.911 114.4 257.452C114.949 256.994 115.874 257.205 116.466 257.925L116.465 257.925Z" fill="#FFCAA7"/>
<path fill-rule="evenodd" clip-rule="evenodd" d="M210.011 81.3721L200.759 96.7551C201.605 95.0299 201.975 93.1109 201.833 91.1953C201.69 89.2797 201.04 87.4365 199.948 85.8551C197.129 81.3517 193.284 77.5781 188.726 74.8425C184.169 72.1068 179.028 70.4866 173.725 70.1141C171.834 69.887 169.917 70.1648 168.169 70.9191C166.422 71.6735 164.905 72.8774 163.775 74.4081L173.028 59.0241C174.154 57.4884 175.669 56.2808 177.419 55.526C179.168 54.7711 181.087 54.4964 182.978 54.7301C188.286 55.1055 193.431 56.7286 197.992 59.467C202.554 62.2054 206.404 65.9816 209.227 70.4881C210.312 72.0702 210.956 73.9117 211.093 75.8242C211.231 77.7366 210.858 79.6513 210.011 81.3721Z" fill="#DD6E0A"/>
<path fill-rule="evenodd" clip-rule="evenodd" d="M230.33 93.6421L221.078 109.026C217.647 114.73 210.454 118.176 200.34 118.03C179.97 117.725 155.343 102.942 145.429 85.0691C140.448 76.0811 140.112 68.0051 143.592 62.2191L152.844 46.8351C149.365 52.6211 149.673 60.6811 154.682 69.6851C164.596 87.5581 189.223 102.341 209.566 102.63C219.68 102.777 226.873 99.3301 230.33 93.6421Z" fill="#EA7F13"/>
<path fill-rule="evenodd" clip-rule="evenodd" d="M181.201 71.4005L192.079 53.3142L174.292 46.9418L164.198 73.5216C166.604 71.7236 169.437 70.5824 172.418 70.2105C175.399 69.8385 178.426 70.2487 181.201 71.4005Z" fill="url(#paint0_radial_3243_6170)"/>
<path d="M228.509 70.7651C238.423 88.6381 229.934 102.935 209.565 102.63C189.195 102.325 164.596 87.5581 154.681 69.6851C144.768 51.8121 153.295 37.3911 173.599 37.8041C193.903 38.2171 218.595 52.8921 228.509 70.7651ZM173.963 69.9631C176.782 74.4663 180.628 78.2397 185.185 80.9751C189.742 83.7106 194.883 85.3307 200.186 85.7031C209.889 85.8611 213.96 79.0331 209.308 70.5371C206.484 66.0304 202.635 62.2541 198.073 59.5157C193.511 56.7773 188.366 55.1543 183.058 54.7791C173.338 54.6491 169.295 61.4941 173.936 69.9461L173.963 69.9631Z" fill="#FFAA4D"/>
<path fill-rule="evenodd" clip-rule="evenodd" d="M457.922 33.7014L490.211 35.8749L504.466 65.1207L472.176 62.9466L457.922 33.7014Z" fill="#FFB0C1"/>
<path fill-rule="evenodd" clip-rule="evenodd" d="M457.923 33.7016L523.562 -63.5379L555.851 -61.3644L490.212 35.8757L457.923 33.7016Z" fill="#FF879B"/>
<path fill-rule="evenodd" clip-rule="evenodd" d="M490.212 35.8757L555.851 -61.3637L570.105 -32.1179L504.466 65.1216L490.212 35.8757Z" fill="#FFC7D3"/>
<path fill-rule="evenodd" clip-rule="evenodd" d="M49.2549 75.5171L35.3613 30.5691L67.6238 -3.97791L81.4974 40.9381L49.2549 75.5171Z" fill="#1FB1FF"/>
<path fill-rule="evenodd" clip-rule="evenodd" d="M49.255 75.517L-86.3154 44.112L-100.209 -0.834961L35.3594 30.569L49.255 75.517Z" fill="#008AD1"/>
<path fill-rule="evenodd" clip-rule="evenodd" d="M35.3604 30.569L-100.21 -0.834957L-67.9454 -35.382L67.6259 -3.97796L35.3604 30.569Z" fill="#73D4FF"/>
<path fill-rule="evenodd" clip-rule="evenodd" d="M103.914 204.11L93.2339 178.859L98.2137 147.394L108.894 172.647L103.914 204.11Z" fill="#4DDBA7"/>
<path fill-rule="evenodd" clip-rule="evenodd" d="M103.914 204.11L-16.019 250.001L-40.7251 230.127L93.2327 178.86L103.914 204.11Z" fill="#3BD093"/>
<path fill-rule="evenodd" clip-rule="evenodd" d="M93.2327 178.859L-40.7251 230.127L-35.7362 198.685L98.2136 147.395L93.2327 178.859Z" fill="#7FEAC1"/>
</g>
<defs>
<radialGradient id="paint0_radial_3243_6170" cx="0" cy="0" r="1" gradientUnits="userSpaceOnUse" gradientTransform="translate(190.447 62.2743) rotate(30.9753) scale(21.4626 21.4532)">
<stop stop-color="#D96700" stop-opacity="0.6"/>
<stop offset="0.16" stop-color="#CD6101" stop-opacity="0.53"/>
<stop offset="0.47" stop-color="#AC5302" stop-opacity="0.36"/>
<stop offset="0.89" stop-color="#783B04" stop-opacity="0.08"/>
<stop offset="1" stop-color="#693405" stop-opacity="0"/>
</radialGradient>
<clipPath id="clip0_3243_6170">
<rect width="550" height="264" fill="white"/>
</clipPath>
</defs>
</svg>
