<svg width="550" height="264" viewBox="0 0 550 264" fill="none" xmlns="http://www.w3.org/2000/svg">
<g opacity="0.3" clip-path="url(#clip0_3268_2939)">
<path fill-rule="evenodd" clip-rule="evenodd" d="M5.44884 15.6703C13.9721 7.19291 32.2626 11.7669 46.3012 25.8887C60.3403 40.009 64.812 58.3297 56.2884 66.8079C47.7652 75.2853 29.4749 70.7106 15.4353 56.5892C1.39648 42.4682 -3.07473 24.1485 5.44884 15.6703Z" fill="#73D4FF"/>
<path fill-rule="evenodd" clip-rule="evenodd" d="M123.267 -15.0404C125.251 -6.98693 123.787 -0.50534 119.835 3.44769L56.2953 66.795C60.2876 62.8027 61.7908 56.3199 59.7279 48.3073C55.7369 32.3397 39.5907 16.1931 23.6792 12.2592C15.7436 10.312 9.37924 11.7342 5.46641 15.6469L68.9861 -47.6812C72.9784 -51.6736 79.2826 -53.0364 87.2001 -51.1078C103.054 -47.271 119.278 -31.0483 123.267 -15.0401L123.267 -15.0404Z" fill="#1FB1FF"/>
<path fill-rule="evenodd" clip-rule="evenodd" d="M34.7854 16.8982C31.3417 14.8277 27.6027 13.2658 23.6785 12.2593C15.7429 10.3121 9.37856 11.7343 5.46573 15.6469L68.9854 -47.6811C72.9777 -51.6735 79.2819 -53.0363 87.1994 -51.1076C91.115 -50.1059 94.863 -48.5368 98.3244 -46.4502L34.7854 16.8982Z" fill="#008AD1"/>
<path d="M508.048 128.017C504.645 133.681 497.327 135.533 491.704 132.154C486.08 128.775 484.28 121.445 487.683 115.781C491.086 110.117 498.404 108.265 504.028 111.644C509.651 115.023 511.451 122.354 508.048 128.017Z" fill="#FFD036"/>
<path fill-rule="evenodd" clip-rule="evenodd" d="M485.967 122.245C486.854 127.321 492.351 130.414 498.457 128.998C504.562 127.583 509.156 121.87 507.961 116.471C507.798 115.764 507.543 115.083 507.202 114.443C510.452 118.501 510.688 124.222 507.785 128.575C504.882 132.928 499.512 134.904 494.52 133.457C489.528 132.01 486.07 127.474 485.981 122.253L485.967 122.245Z" fill="#FFC20C"/>
<path fill-rule="evenodd" clip-rule="evenodd" d="M495.124 117.419C497.001 117.07 498.313 115.616 498.054 114.173C497.797 112.73 496.066 111.844 494.189 112.193C492.312 112.543 491 113.996 491.258 115.44C491.516 116.882 493.247 117.769 495.124 117.419Z" fill="#F9E4AA"/>
<path d="M294.797 203.354C291.402 209.004 284.101 210.852 278.491 207.481C272.881 204.11 271.085 196.797 274.48 191.147C277.876 185.496 285.176 183.648 290.786 187.019C296.396 190.39 298.192 197.703 294.797 203.354Z" fill="white"/>
<path fill-rule="evenodd" clip-rule="evenodd" d="M272.768 197.595C273.654 202.658 279.137 205.744 285.228 204.333C291.319 202.92 295.903 197.222 294.71 191.834C294.548 191.13 294.294 190.45 293.954 189.812C297.196 193.86 297.432 199.569 294.535 203.911C291.639 208.252 286.281 210.224 281.301 208.781C276.322 207.337 272.871 202.811 272.781 197.603L272.768 197.595Z" fill="#EEF8FF"/>
<path fill-rule="evenodd" clip-rule="evenodd" d="M281.904 192.781C283.777 192.432 285.084 190.983 284.828 189.543C284.57 188.103 282.843 187.219 280.971 187.567C279.099 187.916 277.79 189.366 278.047 190.806C278.305 192.245 280.032 193.13 281.904 192.781Z" fill="white"/>
<path fill-rule="evenodd" clip-rule="evenodd" d="M493.865 189.163L574.08 192.184L576.133 227.525L547.739 248.669L493.865 189.163Z" fill="#5971EA"/>
<path fill-rule="evenodd" clip-rule="evenodd" d="M574.08 192.184L576.133 227.525L493.865 189.163L574.08 192.184Z" fill="#8D8DFF"/>
<path fill-rule="evenodd" clip-rule="evenodd" d="M207.919 57.3157C212.119 55.1617 212.63 47.7767 209.061 40.8217C205.491 33.8667 199.194 29.9747 194.994 32.1287C190.794 34.2827 190.284 41.6677 193.854 48.6227C197.422 55.5777 203.72 59.4697 207.92 57.3157H207.919Z" fill="#7FEAC1"/>
<path fill-rule="evenodd" clip-rule="evenodd" d="M233.68 17.0498C230.914 15.3328 228.316 15.0928 226.36 16.0888L195 32.1288C196.975 31.1218 199.577 31.3468 202.319 33.0888C207.797 36.5168 211.867 44.5038 211.405 50.9218C211.169 54.1218 209.866 56.3248 207.931 57.3118L239.283 41.2778C241.257 40.2708 242.531 38.0828 242.772 34.8928C243.263 28.5078 239.173 20.4818 233.68 17.0498Z" fill="#4DDBA7"/>
<path fill-rule="evenodd" clip-rule="evenodd" d="M400.96 158.486L390.547 211.286L366.929 208.94L355.905 187.921L400.96 158.486Z" fill="#3BD093"/>
<path fill-rule="evenodd" clip-rule="evenodd" d="M390.546 211.286L366.928 208.94L400.959 158.486L390.546 211.286Z" fill="#7FEAC1"/>
<path d="M378.558 28.1451C374.153 27.8372 370.831 24.0427 371.137 19.6698C371.442 15.297 375.261 12.0018 379.665 12.3098C384.069 12.6178 387.392 16.4123 387.086 20.7851C386.78 25.1579 382.962 28.4531 378.558 28.1451Z" fill="#80BAF5"/>
<path fill-rule="evenodd" clip-rule="evenodd" d="M375.296 13.2492C372.544 15.3173 372.37 19.5274 375.064 22.7331C377.759 25.9389 382.554 26.9418 385.406 24.5911C385.777 24.2799 386.105 23.9214 386.383 23.5246C384.953 26.6906 381.619 28.5666 378.146 28.1584C374.674 27.7512 371.869 25.1531 371.217 21.7424C370.9 20.0781 371.126 18.3562 371.86 16.8293C372.594 15.3025 373.798 14.0513 375.296 13.2592L375.296 13.2492Z" fill="#61A8F1"/>
<path fill-rule="evenodd" clip-rule="evenodd" d="M380.946 17.2375C381.724 18.2482 382.987 18.5891 383.768 17.9972C384.549 17.4062 384.552 16.1073 383.775 15.0956C382.997 14.0839 381.734 13.7439 380.953 14.3349C380.172 14.9268 380.169 16.2258 380.946 17.2375Z" fill="#A6D2FE"/>
<path d="M307.183 104.561C310.396 113.389 305.895 123.132 297.13 126.322C288.365 129.512 278.655 124.942 275.442 116.114C272.229 107.286 276.73 97.5437 285.495 94.3535C294.26 91.1633 303.97 95.7335 307.183 104.561Z" fill="#FAA166"/>
<path fill-rule="evenodd" clip-rule="evenodd" d="M281.049 123.793C287.452 127.353 295.786 124.048 299.685 116.035C303.585 108.023 301.384 97.8371 294.348 94.3256C293.422 93.8735 292.44 93.5453 291.428 93.3494C298.82 93.3888 305.353 98.2472 307.565 105.35C309.776 112.452 307.155 120.154 301.089 124.375C295.024 128.594 286.919 128.357 281.069 123.786L281.05 123.793L281.049 123.793Z" fill="#F0833B"/>
<path fill-rule="evenodd" clip-rule="evenodd" d="M283.91 109.359C285.203 106.973 284.771 104.222 282.946 103.216C281.12 102.21 278.592 103.329 277.3 105.716C276.006 108.102 276.437 110.853 278.264 111.859C280.089 112.865 282.617 111.745 283.91 109.359Z" fill="#FFCAA7"/>
<path fill-rule="evenodd" clip-rule="evenodd" d="M488.492 26.6112L494.304 45.6212C493.858 43.5409 493.974 41.3795 494.64 39.3589C495.306 37.3384 496.498 35.5316 498.094 34.1242C502.328 30.0386 507.468 27.0122 513.094 25.292C518.721 23.5719 524.674 23.2066 530.469 24.2262C532.559 24.4881 534.543 25.2997 536.217 26.5782C537.892 27.8568 539.197 29.5566 540.001 31.5042L534.189 12.4942C533.392 10.5425 532.088 8.83898 530.412 7.55956C528.736 6.28013 526.75 5.47117 524.657 5.21619C518.856 4.19818 512.897 4.56502 507.266 6.28682C501.634 8.00862 496.488 11.0367 492.249 15.1242C490.661 16.5342 489.476 18.341 488.816 20.3594C488.156 22.3778 488.044 24.5353 488.492 26.6112Z" fill="#F76D84"/>
<path fill-rule="evenodd" clip-rule="evenodd" d="M463.388 34.3607L469.2 53.3707C471.355 60.4207 478.154 66.0507 489.053 68.5997C511.006 73.7247 541.409 64.4297 556.843 47.8747C564.599 39.5477 567.123 30.9577 564.938 23.8077L559.127 4.79773C561.313 11.9477 558.82 20.5277 551.03 28.8637C535.597 45.4187 505.194 54.7137 483.275 49.5787C472.375 47.0287 465.576 41.3987 463.388 34.3607Z" fill="#FF879B"/>
<path fill-rule="evenodd" clip-rule="evenodd" d="M522.096 23.6077L515.263 1.25597L536.07 -0.830618L539.785 30.4387C537.683 27.8622 534.947 25.8774 531.846 24.6796C528.744 23.4818 525.384 23.1124 522.096 23.6077Z" fill="url(#paint0_linear_3268_2939)"/>
<path d="M471.473 10.2604C456.039 26.8154 461.323 44.4534 483.275 49.5784C505.227 54.7034 535.597 45.4184 551.03 28.8634C566.464 12.3084 561.174 -5.47359 539.262 -10.4646C517.351 -15.4566 486.907 -6.29459 471.473 10.2604ZM530.253 24.0004C526.019 28.0855 520.879 31.1115 515.253 32.8315C509.627 34.5515 503.674 34.9168 497.88 33.8974C487.42 31.4694 484.879 23.0404 492.15 15.1544C496.389 11.067 501.534 8.03908 507.166 6.31728C512.798 4.59549 518.756 4.22857 524.557 5.24641C535.027 7.70841 537.535 16.1484 530.287 23.9894L530.254 23.9994L530.253 24.0004Z" fill="#FFC7D3"/>
<path fill-rule="evenodd" clip-rule="evenodd" d="M192.099 162.554L168.432 161.242L155.469 181.218L179.136 182.53L192.099 162.554Z" fill="#ADFBF9"/>
<path fill-rule="evenodd" clip-rule="evenodd" d="M192.099 162.554L153.027 86.0115L129.36 84.6986L168.432 161.242L192.099 162.554Z" fill="#73DAD6"/>
<path fill-rule="evenodd" clip-rule="evenodd" d="M168.432 161.242L129.36 84.6992L116.397 104.675L155.469 181.217L168.432 161.242Z" fill="#8BEAE7"/>
<path fill-rule="evenodd" clip-rule="evenodd" d="M356.682 101.097L361.719 85.5097L357.119 67.0397L352.082 82.6267L356.682 101.097Z" fill="#FDDEFF"/>
<path fill-rule="evenodd" clip-rule="evenodd" d="M356.681 101.097L430.391 122.173L444.048 109.058L361.718 85.51L356.681 101.097Z" fill="#F2B1F6"/>
<path fill-rule="evenodd" clip-rule="evenodd" d="M361.718 85.5097L444.048 109.058L439.443 90.6017L357.118 67.0397L361.718 85.5097Z" fill="#FCCDFF"/>
</g>
<defs>
<linearGradient id="paint0_linear_3268_2939" x1="554.799" y1="4.96221" x2="513.602" y2="22.6095" gradientUnits="userSpaceOnUse">
<stop stop-color="#B4132E"/>
<stop offset="0.3088" stop-color="#C8324B"/>
<stop offset="1" stop-color="#F76D84" stop-opacity="0"/>
</linearGradient>
<clipPath id="clip0_3268_2939">
<rect width="550" height="264" fill="white"/>
</clipPath>
</defs>
</svg>
